<svg id="Capa_1" data-name="Capa 1" xmlns="http://www.w3.org/2000/svg" xmlns:xlink="http://www.w3.org/1999/xlink" viewBox="0 0 533.3 593.5"><defs><style>.cls-1{fill:#2a232b;}.cls-16,.cls-2{fill:#daa488;}.cls-3{fill:#e9bfa9;}.cls-4{fill:#cb8b6a;}.cls-5{fill:none;}.cls-16,.cls-5{stroke:#ac5f38;stroke-width:1.5px;}.cls-6{fill:url(#Degradado_sin_nombre);}.cls-7{fill:#f5f4f5;}.cls-41,.cls-42,.cls-8{fill:#fff;}.cls-9{fill:#dfdde2;}.cls-10{fill:#b8b6c9;}.cls-11{fill:#1e78a2;}.cls-12{fill:#0c6893;}.cls-13{fill:#005a83;}.cls-14{fill:#3389b1;}.cls-15{fill:#004f74;}.cls-17{fill:#ac5f38;}.cls-18{fill:#d29779;}.cls-19{fill:url(#Degradado_sin_nombre_2);}.cls-20{fill:url(#Degradado_sin_nombre_3);}.cls-21{fill:#4d3623;}.cls-22,.cls-31{opacity:0.7;}.cls-22,.cls-23,.cls-24,.cls-25,.cls-26,.cls-27,.cls-31,.cls-32,.cls-33,.cls-34,.cls-35,.cls-41,.cls-42{isolation:isolate;}.cls-22{fill:url(#Degradado_sin_nombre_4);}.cls-23,.cls-32,.cls-42{opacity:0.4;}.cls-23{fill:url(#Degradado_sin_nombre_5);}.cls-24{opacity:0.9;}.cls-25,.cls-26,.cls-33,.cls-34{opacity:0.5;}.cls-25{fill:url(#Degradado_sin_nombre_6);}.cls-26{fill:url(#Degradado_sin_nombre_7);}.cls-27,.cls-35{opacity:0.75;}.cls-27{fill:url(#Degradado_sin_nombre_8);}.cls-28{fill:url(#Degradado_sin_nombre_9);}.cls-29{fill:url(#Degradado_sin_nombre_10);}.cls-30{fill:url(#Degradado_sin_nombre_11);}.cls-31{fill:url(#Degradado_sin_nombre_12);}.cls-32{fill:url(#Degradado_sin_nombre_13);}.cls-33{fill:url(#Degradado_sin_nombre_14);}.cls-34{fill:url(#Degradado_sin_nombre_15);}.cls-35{fill:url(#Degradado_sin_nombre_16);}.cls-36{fill:url(#Degradado_sin_nombre_17);}.cls-37{fill:url(#Degradado_sin_nombre_18);}.cls-38{fill:url(#Degradado_sin_nombre_19);}.cls-39{fill:url(#Degradado_sin_nombre_20);}.cls-40{fill:#1b141c;}.cls-41{opacity:0.2;}.cls-43{fill:#26120b;}</style><linearGradient id="Degradado_sin_nombre" x1="89" y1="425.86" x2="89" y2="469.36" gradientTransform="matrix(2.5, 0, 0, -2.5, 49.5, 1503.52)" gradientUnits="userSpaceOnUse"><stop offset="0" stop-color="#cb8b6a" stop-opacity="0.8"/><stop offset="0.7" stop-color="#ac5f38"/></linearGradient><linearGradient id="Degradado_sin_nombre_2" x1="88.71" y1="455.86" x2="88.71" y2="458.86" gradientTransform="matrix(2.5, 0, 0, -2.5, 49.5, 1503.52)" gradientUnits="userSpaceOnUse"><stop offset="0.1" stop-color="#d29779"/><stop offset="1" stop-color="#cb8b6a"/></linearGradient><radialGradient id="Degradado_sin_nombre_3" cx="72.05" cy="513.98" r="13.37" gradientTransform="translate(389.49 1528.05) rotate(180) scale(2.54)" gradientUnits="userSpaceOnUse"><stop offset="0" stop-color="#fff"/><stop offset="0.54" stop-color="#fdfefe"/><stop offset="0.74" stop-color="#f6f8f9"/><stop offset="0.88" stop-color="#eaeff2"/><stop offset="0.99" stop-color="#d9e3e8"/><stop offset="1" stop-color="#d8e2e7"/></radialGradient><radialGradient id="Degradado_sin_nombre_4" cx="-531.16" cy="555.17" r="59.75" gradientTransform="matrix(0.24, -0.06, -0.06, -0.24, 370.17, 320.61)" gradientUnits="userSpaceOnUse"><stop offset="0" stop-color="#fff"/><stop offset="1" stop-color="#fff" stop-opacity="0"/></radialGradient><radialGradient id="Degradado_sin_nombre_5" cx="-387.37" cy="591.72" r="59.75" gradientTransform="matrix(0.25, 0, 0, -0.25, 303.03, 367.64)" xlink:href="#Degradado_sin_nombre_4"/><linearGradient id="Degradado_sin_nombre_6" x1="111.67" y1="509.59" x2="112.61" y2="510.71" gradientTransform="matrix(2.5, 0, 0, -2.5, -78.62, 1504.77)" xlink:href="#Degradado_sin_nombre_4"/><linearGradient id="Degradado_sin_nombre_7" x1="116.21" y1="515.57" x2="115.46" y2="514.67" gradientTransform="matrix(2.5, 0, 0, -2.5, -78.62, 1504.77)" xlink:href="#Degradado_sin_nombre_4"/><linearGradient id="Degradado_sin_nombre_8" x1="118.64" y1="518.04" x2="116.91" y2="515.98" gradientTransform="matrix(2.5, 0, 0, -2.5, -78.62, 1504.77)" xlink:href="#Degradado_sin_nombre_4"/><radialGradient id="Degradado_sin_nombre_9" cx="112.31" cy="643.43" fx="124.17041664800637" r="16.86" gradientTransform="matrix(2.5, 0.05, -0.04, 2, -37.32, -1072.65)" gradientUnits="userSpaceOnUse"><stop offset="0" stop-color="#cb8b6a"/><stop offset="0.7" stop-color="#cb8b6a" stop-opacity="0.3"/><stop offset="1" stop-color="#daa488" stop-opacity="0"/></radialGradient><radialGradient id="Degradado_sin_nombre_10" cx="57.95" cy="496.71" r="22.1" gradientTransform="matrix(2.61, -0.14, -0.14, -2.6, 120.72, 1564.21)" gradientUnits="userSpaceOnUse"><stop offset="0.95" stop-opacity="0"/><stop offset="1" stop-opacity="0.2"/></radialGradient><radialGradient id="Degradado_sin_nombre_11" cx="114.92" cy="513.98" r="13.37" gradientTransform="matrix(2.54, 0, 0, -2.54, 44.51, 1528.05)" xlink:href="#Degradado_sin_nombre_3"/><radialGradient id="Degradado_sin_nombre_12" cx="-531.16" cy="555.17" r="59.75" gradientTransform="matrix(0.24, -0.06, -0.06, -0.24, 496.42, 320.61)" xlink:href="#Degradado_sin_nombre_4"/><radialGradient id="Degradado_sin_nombre_13" cx="-387.36" cy="591.72" r="59.76" gradientTransform="matrix(0.25, 0, 0, -0.25, 429.28, 367.64)" xlink:href="#Degradado_sin_nombre_4"/><linearGradient id="Degradado_sin_nombre_14" x1="111.67" y1="509.59" x2="112.61" y2="510.71" gradientTransform="matrix(2.5, 0, 0, -2.5, 47.63, 1504.77)" xlink:href="#Degradado_sin_nombre_4"/><linearGradient id="Degradado_sin_nombre_15" x1="116.21" y1="515.57" x2="115.46" y2="514.67" gradientTransform="matrix(2.5, 0, 0, -2.5, 47.63, 1504.77)" xlink:href="#Degradado_sin_nombre_4"/><linearGradient id="Degradado_sin_nombre_16" x1="118.64" y1="518.04" x2="116.91" y2="515.98" gradientTransform="matrix(2.5, 0, 0, -2.5, 47.63, 1504.77)" xlink:href="#Degradado_sin_nombre_4"/><radialGradient id="Degradado_sin_nombre_17" cx="67.92" cy="644.58" fx="79.78160911547874" r="16.86" gradientTransform="matrix(-2.5, 0.05, 0.04, 2, 469.32, -1072.63)" xlink:href="#Degradado_sin_nombre_9"/><radialGradient id="Degradado_sin_nombre_18" cx="16.36" cy="498.89" r="22.1" gradientTransform="matrix(-2.61, -0.14, 0.14, -2.6, 313.28, 1564.22)" xlink:href="#Degradado_sin_nombre_10"/><radialGradient id="Degradado_sin_nombre_19" cx="89" cy="483.86" r="41" gradientTransform="matrix(2.5, 0, 0, -2.5, 49.5, 1503.52)" gradientUnits="userSpaceOnUse"><stop offset="0" stop-color="#e9bfa9" stop-opacity="0.5"/><stop offset="0.9" stop-color="#daa488" stop-opacity="0"/></radialGradient><radialGradient id="Degradado_sin_nombre_20" cx="89" cy="543.86" r="37" xlink:href="#Degradado_sin_nombre_19"/></defs><title>myAvatar</title><g id="svga-group-wrapper"><g id="svga-group-humanwrap-move"><g id="svga-group-humanwrap"><g id="svga-group-hair-back-move"><g id="svga-group-hair-back"><path id="SvgjsPath3867" class="cls-1" d="M273.25,260.11h-2.5v-2.5h2.5Z" transform="translate(-5.35 -7.47)"/></g></g><g id="svga-group-humanbody-single"><path id="SvgjsPath2914" class="cls-2" d="M510.54,508.31c-5.49-11.87-20.48-29.45-37.15-34.31-20.59-6-67.09-13.27-84.33-17.31-13.82-3.24-41.66-28.23-51.41-36.62a10.59,10.59,0,0,1-3.22-6.9c-.34-27.16,10.49-99.31,10.49-99.31H199.08s10.84,72.15,10.48,99.31a10.49,10.49,0,0,1-3.21,6.9c-9.75,8.39-37.59,33.39-51.41,36.62-17.24,4-63.74,11.55-84.33,17.56C53.94,479.11,39,496.44,33.46,508.3,24.19,528.32,22,564.55,22,595.8H522C522,564.56,519.81,528.33,510.54,508.31Z" transform="translate(-5.35 -7.47)"/><path id="SvgjsPath2915" class="cls-3" d="M419.89,469c60.85,8.85,86.47,21.77,94.49,126.8H522c0-31.25-2.19-67.48-11.46-87.5-5.49-11.87-20.49-29.45-37.15-34.31-20.6-6-67.09-13.27-84.33-17.3-13.82-3.24-45.61-30.18-54.11-40.88,8.4,11.76,32,39,52.64,46.15C397.47,465.39,405.7,466.94,419.89,469Zm-263.48-7c20.66-7.13,44.24-34.39,52.64-46.15-8.5,10.7-40.29,37.64-54.11,40.88-17.24,4-63.73,11.55-84.33,17.55C54,479.11,39,496.44,33.46,508.31c-9.27,20-11.46,56.25-11.46,87.5h7.63c8-104.36,33.68-118,94.48-126.8C138.3,466.94,146.53,465.39,156.41,462Z" transform="translate(-5.35 -7.47)"/><path id="SvgjsPath2916" class="cls-4" d="M261.12,502.91s-12.69-4-17.71-6c-26.12-10-111-16.51-111-16.51s89.39,3.55,109.11,6.95c-1.14-11.92-7.54-50-7.54-50s12.87,42,16,52.64C251.69,495.7,261.12,502.91,261.12,502.91Zm27-3.35c-.22.18-.48.42-.75.67A7.11,7.11,0,0,0,288.11,499.56Zm-27,3.35s7.23,7.48,10.86,7.58c4.78.12,12.07-7.25,15.38-10.26-3.16,2.39-10.4,3.47-13.27,3.59C270.76,504,261.12,502.91,261.12,502.91Zm52.54-18.8c-3.86.62-11,2-11,2l5.72-37.23c-1.61,7.68-11.18,40.53-20.3,50.7,4.78-4,15.4-6,20.81-6.76,25.59-3.71,25.58-3.71,102.66-12.35C411.58,480.45,338.9,480.06,313.66,484.11Z" transform="translate(-5.35 -7.47)"/><path id="SvgjsPath2917" class="cls-5" d="M510.54,508.31c-5.49-11.87-20.48-29.45-37.15-34.31-20.59-6-67.09-13.27-84.33-17.31-13.82-3.24-41.66-28.23-51.41-36.62a10.59,10.59,0,0,1-3.22-6.9c-.34-27.16,10.49-99.31,10.49-99.31H199.08s10.84,72.15,10.48,99.31a10.49,10.49,0,0,1-3.21,6.9c-9.75,8.39-37.59,33.39-51.41,36.62-17.24,4-63.74,11.55-84.33,17.56C53.94,479.11,39,496.44,33.46,508.3,24.19,528.32,22,564.55,22,595.8H522C522,564.56,519.81,528.33,510.54,508.31Z" transform="translate(-5.35 -7.47)"/></g><g id="svga-group-chinshadow-single"><path id="SvgjsPath3092" class="cls-6" d="M314.84,433.22c6.29-2.67,13-7.57,19.82-13.8a12.35,12.35,0,0,1-2.11-6.22c-.23-18.25,4.44-55.93,7.64-79.39-39.45-4.81-96.93-4.79-136.37,0,3.19,23.46,7.86,61.11,7.62,79.34a12.4,12.4,0,0,1-2.1,6.22c6.78,6.23,13.54,11.13,19.83,13.81C247.78,441.13,296.23,441.13,314.84,433.22Z" transform="translate(-5.35 -7.47)"/></g><g id="svga-group-clothes-single"><path id="SvgjsPath3831" class="cls-7" d="M128.92,598.26l3.31-152.14s25.49-6.21,41.59-15.78c43.74,54.88,173.63,43.33,195.84-1.55,3.72,1.31,6.8,3,10.65,4.28,12.5,8.47,23,11.24,23,11.24l2.33,154.21C370,599,128.92,598.26,128.92,598.26Z" transform="translate(-5.35 -7.47)"/><path id="SvgjsPath3832" class="cls-8" d="M407,453.13c-10.59-1.8-19-4.25-23.63-8.87-13.36,25.07-66.91,40.95-84.64,43.28,51.38-15.69,73-27,81.49-54,5,6,16.31,8.87,30.79,11.34Zm-253.37-8.32c3.64-.77,5.45-3.08,9.06-4l-3.82-4.67c-7.78,5.59-22.43,8.27-39.75,11.06l.47,9.35a146,146,0,0,0,28.57-8.31c18.71,21.21,47.92,31.65,77.65,36C188.56,475.27,167.17,460.14,153.67,444.81Z" transform="translate(-5.35 -7.47)"/><path id="SvgjsPath3833" class="cls-9" d="M366.65,434c-14.82,28.4-126.85,61.49-190,2.16-3.93,1.54-15.68,5.22-15.68,5.22,46,57.7,180.86,58.07,216.76-.28C377.55,441,370.3,435.7,366.65,434Z" transform="translate(-5.35 -7.47)"/><path id="SvgjsPath3834" class="cls-10" d="M369.52,428.47c-25.22,46.43-156.45,53-195.6,1.56-14.3,3.89-28,12.19-41.89,14.27l-3.11,154,276.76.26-2.14-156c-8.42-1.77-16.25-6.85-23.13-9.74C376.6,431.23,373.37,429.79,369.52,428.47ZM173,431.58c34.76,57.72,172,46.14,198.55.25,3.22,1.24,4,1.74,7.77,3-27.46,53-163.27,69.91-218.82,2.86C160.86,437.55,169.06,432.93,173,431.58Zm-15.25,8.33c44.9,67.61,193.15,57.14,224-3.22A50.26,50.26,0,0,0,401.51,446l4.16,147.7-276,0L134.48,448C141.44,444.52,152.62,441.94,157.72,439.91Z" transform="translate(-5.35 -7.47)"/><path id="SvgjsPath3835" class="cls-11" d="M10.68,597.78C4.24,563.15,5,478.8,33.21,479c32.84-13.27,73.17-28.51,107-38.27,17.27-18.12,33.59-35.34,65.47-53.29,1,6.5,4.69,21.35,0,29.43-3.39,5.88-14.45,13.94-23.88,20.92-5.08,6.8-9.82,13.44-16.5,22.73,12.92,55.75,24,84.45,25.24,132.8,0,0-3.63,1.73,161.18,1,5.54-55.85,12.48-83.91,25.95-135.25,0,0-10.77-12.53-18-22.17-5.14-5-20.9-18.83-22.1-21.63-2.94-6.85-1.37-15.47.27-28.42,27,12.18,42.5,30.05,65.21,53.26,19.32,5.3,77.15,24.92,106.11,38,9.91-.28,15.51,5,19.68,13.66,13.51,28,10.32,68.25,5.45,107C486.57,598.83,146.72,604.29,10.68,597.78Z" transform="translate(-5.35 -7.47)"/><path id="SvgjsPath3836" class="cls-12" d="M206.69,394.06c.4,2.68.76,5.22,1,7.61-.54.66-43,58.38-43.33,58.81C174.81,436.73,189.75,412.12,206.69,394.06Zm130.44,0c-.39,2.68-.46,5.22-.73,7.61.55.66,42.33,56.17,42.64,56.6C368,436.15,354.07,412.12,337.13,394.06Zm97.39,77.69c-10.7,15.58-13,20.95-24.7,36.39,2.68,0,7,.42,9.68.42C428.66,492.84,428.67,484.85,434.52,471.75Zm11,113.06c9.49-22.25,17.34-41.78,26.85-64.06l-3.12-5C461.29,538.6,452.89,561.86,445.48,584.81ZM124.62,508.55c2.68,0,7-.41,9.68-.41-11.72-15.44-14-16.4-24.7-32C115.44,489.26,115.46,492.84,124.62,508.55ZM74.9,515.71l-3.12,5C81.3,543,83.7,562.56,93.18,584.81,85.78,561.86,82.82,538.6,74.9,515.71Z" transform="translate(-5.35 -7.47)"/><path id="SvgjsPath3837" class="cls-13" d="M186.09,432.07c3-4.11,13.1-18.18,21.51-31.4C210.07,414.31,205.53,422.4,186.09,432.07Zm150.26-32.31a301.56,301.56,0,0,0,21.66,32C337,422.2,335.59,412.42,336.35,399.76Z" transform="translate(-5.35 -7.47)"/><path id="SvgjsPath3838" class="cls-14" d="M337.79,387.26a3.56,3.56,0,0,0,.06-.44c45.24,25,71.44,62.56,101.87,90.55-1.12,1.8-3.07,3-4.22,4.76C403.64,457.88,388.5,421.23,337.79,387.26Zm-136.45,1.66c-37.59,20.53-90.61,83.39-95.8,88.17,1.12,1.81,1.73,1.44,2.88,3.22C140.28,456.07,149,432.07,201.34,388.92Zm307.83,89.2c-2.5-2-61.61-25.1-106.47-37.42,84.24,40.75,114,46.36,128.67,60.8C530.42,499,528.46,477.58,509.17,478.12ZM140.64,440.25C106.83,450,63.55,465.49,33.21,479c-13.41.26-23,19.82-25.08,40.21C26.78,477.16,17.57,505.41,140.64,440.25Z" transform="translate(-5.35 -7.47)"/><path id="SvgjsPath3839" class="cls-15" d="M538.5,534c-.85-21.59-7.64-57.76-29.23-56.15-1.78-1.53-52-24.42-105.71-39-18.38-18.64-41.29-44-65.93-52.39-1.77,16.07-3.69,26.55.54,31.78,5.61,6.1,12.33,12.2,18.92,16.31A283.37,283.37,0,0,0,377.44,459c-13.58,51.76-22,78.29-27.43,134.22H194c-5.39-55.93-13.85-82.46-27.43-134.22a285.35,285.35,0,0,0,20.35-24.44c6.6-4.11,13.32-10.21,18.92-16.31,4.23-5.23,2.32-15.71.54-31.78-24.64,8.39-47.55,33.75-65.93,52.39-53.66,14.61-103.93,37.5-105.71,39C13.14,476.26,6.35,512.43,5.5,534c-1,26.21,3.59,62.34,4,64.84H534.54C534.91,596.36,539.53,560.23,538.5,534Zm-334-117.17c-5.65,5.58-9.14,7.95-16.18,13.2,12.07-15.67,10.85-13.58,19.27-28.07C207.92,408.21,205.58,415.74,204.46,416.85ZM14.07,593.93c-2.71-32.11-7.29-61,1.07-92.48,3.21-12.07,6.21-20.24,18.64-21.27C36.45,494,54.11,552,69.53,591.51,54,531,56.25,544.49,49,520.38c-2.41-8.08-4.64-16.21-7.45-24.18-2-5.53-4.12-11-5.65-16.63L137,442.41c-.7.71-32.24,33.58-33,34.51,4.62,7.55,19.54,18.05,27.11,29.39-31.09,2.94-46.27,7.93-57.5,9.6.83,2.3,22.66,63.38,24.94,69.14-3.69-19.79-12-50.74-21.59-68,3.53-.44,45.19-6.23,58.48-8.69-3.69-7.13-20.1-21.09-28.89-31.55,51.61-45.4,63.55-68.5,99-88.63.37,3.77,1.11,7.53,1.37,11.3-39.48,58.83-44.12,58.91-44.12,58.91,11.46,44.53,26.33,89.56,26.33,135.19ZM339.54,416.85c-1.12-1.11-3.47-8.64-3.09-14.87,8.42,14.49,7.2,12.39,19.27,28.07C348.68,424.8,345.18,422.43,339.54,416.85ZM529.93,593.93l-175-.38c0-45.63,14.87-90.66,26.33-135.19,0,0-4.64-.08-44.12-58.91.26-3.77,1-7.53,1.37-11.3,35.43,20.13,47.37,43.23,99,88.63-8.79,10.46-25.2,24.42-28.89,31.55,13.28,2.46,54.95,8.25,58.48,8.69-9.55,17.29-17.89,48.24-21.59,68,2.28-5.76,24.11-66.84,24.94-69.14-11.23-1.67-26.41-6.66-57.5-9.6C420.5,495,435.42,484.47,440,476.92c-.76-.93-32.3-33.8-33-34.51l101.08,37.16c-1.52,5.67-3.69,11.1-5.65,16.63-2.81,8-5,16.1-7.45,24.18-7.27,24.11-5,10.65-20.54,71.13C489.89,552,507.55,494,510.22,480.18c12.43,1,15.44,9.2,18.64,21.27C537.22,532.91,532.63,561.82,529.93,593.93Z" transform="translate(-5.35 -7.47)"/></g><g id="svga-group-head"><g id="svga-group-ears-left-move"><g id="svga-group-ears-left"><path id="SvgjsPath3134" class="cls-16" d="M140,212.62c-2.41-6.21-20.2-15-28-13.61-8.85,1.56-12.1,10.89-10.92,17.8,2.75,16.21,10,23,13.24,35.71,2.74,10.68,8.58,16.83,11.47,21.37,3.55,5.57,6.82,18.35,7.55,20.22,1.16,2.95,5.26,10.1,12.51,9.74,8.33-.43,18.86-16.72,19-20.34C165.86,263.89,146.33,228.81,140,212.62Z" transform="translate(-5.35 -7.47)"/><path id="SvgjsPath3135" class="cls-17" d="M141.88,278.76a6.51,6.51,0,0,0-.23-5.05c-1.68-3.06-6.06-8.67-7.06-12-.81-2.75-.4-8.61-.53-11.48-.23-5.08-3.73-8.55-4.82-11.47-7.28-19.48-17-31.55-22.5-34.06-4.08,10-.84,17.27,4.85,32.61-3.43-20.85-.13-27.37-.13-27.37s10,8.66,15,27.93c.9,3.47-2.78,10.73-2.07,14.26.88,4.43,10.46,13,13.14,16.59C139.62,271.48,141.88,278.76,141.88,278.76Z" transform="translate(-5.35 -7.47)"/></g></g><g id="svga-group-ears-right-move"><g id="svga-group-ears-right"><path id="SvgjsPath3136" class="cls-16" d="M403.3,212.62c2.42-6.21,20.21-15,28-13.61,8.85,1.56,12.09,10.89,10.92,17.8-2.76,16.21-10,23-13.24,35.71-2.74,10.68-8.59,16.83-11.47,21.37-3.55,5.57-6.83,18.35-7.56,20.22-1.16,2.95-5.26,10.1-12.5,9.74-8.33-.43-18.87-16.72-19-20.34C377.48,263.89,397,228.81,403.3,212.62Z" transform="translate(-5.35 -7.47)"/><path id="SvgjsPath3137" class="cls-17" d="M401.46,278.76a6.49,6.49,0,0,1,.24-5.05c1.68-3.06,6.06-8.67,7.05-12,.81-2.75.4-8.61.53-11.48.24-5.08,3.73-8.55,4.82-11.47,7.28-19.48,17-31.55,22.5-34.06,4.08,10,.84,17.27-4.85,32.61,3.44-20.85.13-27.37.13-27.37s-10,8.66-15,27.93c-.89,3.47,2.78,10.73,2.07,14.26-.88,4.43-10.46,13-13.14,16.59C403.72,271.48,401.46,278.76,401.46,278.76Z" transform="translate(-5.35 -7.47)"/></g></g><g id="svga-group-faceshape-wrap"><g id="svga-group-faceshape-single"><path id="SvgjsPath3089" class="cls-2" d="M383.84,326.8c-11.37,24.72-43.93,70.76-69,81.42-18.61,7.91-67.06,7.91-85.67,0-25.07-10.66-57.63-56.7-69-81.42-13.23-28.72-35.3-121.55-35.33-121.69a156.07,156.07,0,0,1-5-39.11C119.7,80.88,187.72,11.79,271.77,11.65s152.28,68.74,152.4,153.86a155.73,155.73,0,0,1-4.88,39.13C419.25,204.77,397.11,298,383.84,326.8Z" transform="translate(-5.35 -7.47)"/><path id="SvgjsPath3090" class="cls-18" d="M297.38,13.82C364.86,29.69,415.12,91,415,164.13a156.09,156.09,0,0,1-5,39.12c0,.13-22.9,93-36,121.69-11,24.15-40.61,68.18-64.67,79.55-7.92,3.75-28.6,4.64-37.34,4.64s-29.41-.89-37.33-4.64C210.61,393.12,181,349.09,170,324.94c-13.09-28.65-36-121.56-36-121.69a156.09,156.09,0,0,1-5-39.12C128.89,91,179.14,29.69,246.63,13.82,174.57,26.08,119.72,89.55,119.83,166a156.07,156.07,0,0,0,5,39.11c0,.14,22,93,35.33,121.69,11.5,24.66,44.35,69.79,69,81.42,9.18,4.33,32.72,5.93,42.84,5.93s33.66-1.61,42.83-5.93c24.65-11.62,57.5-56.76,69-81.42,13.38-28.66,35.3-121.55,35.33-121.69a156.07,156.07,0,0,0,5-39.11C424.29,89.55,369.44,26.08,297.38,13.82Z" transform="translate(-5.35 -7.47)"/><path id="SvgjsPath3091" class="cls-5" d="M383.84,326.8c-11.37,24.72-43.93,70.76-69,81.42-18.61,7.91-67.06,7.91-85.67,0-25.07-10.66-57.63-56.7-69-81.42-13.23-28.72-35.3-121.55-35.33-121.69a156.07,156.07,0,0,1-5-39.11C119.7,80.88,187.72,11.79,271.77,11.65s152.28,68.74,152.4,153.86a155.73,155.73,0,0,1-4.88,39.13C419.25,204.77,397.11,298,383.84,326.8Z" transform="translate(-5.35 -7.47)"/></g></g><g id="svga-group-mouth-single-move"><g id="svga-group-mouth-single"><path id="SvgjsPath3101" class="cls-19" d="M271.56,364c-8.1,0-11.88-7-11.88-7s12,2,23.2-.16C282.88,356.87,278.69,364,271.56,364Z" transform="translate(-5.35 -7.47)"/><path id="SvgjsPath3105" class="cls-17" d="M260,357.23a.64.64,0,0,1-.52-.71.63.63,0,0,1,.71-.52,41.51,41.51,0,0,0,21.92-.11.61.61,0,0,1,.74.49.66.66,0,0,1-.48.74A38,38,0,0,1,260,357.23Zm-24.41-13.47a7.16,7.16,0,0,1,2.68-.29c3.55-.62,7.82-.81,11.35-1.53,3.37-.68,6.93-1.65,10.39-1.49,3.72.18,7.2,1.67,10.89,2.07,3.5.38,6.77-.57,10.13-1.39a26.25,26.25,0,0,1,11.4,0c4.84.91,9.43,2.15,14.22,2.6,1.46.14.91,1,.08,1.13-4.28.52-8.58-.17-13-.62-3.57-.36-7.17-.82-10.69.05-3.79.95-8.59,2.06-11.51,2-3.25,0-6.3-1.34-9.46-2-3.88-.82-7.73-.05-11.62.35a52.58,52.58,0,0,1-13.95.12C235.28,344.59,235.26,343.92,235.62,343.76Z" transform="translate(-5.35 -7.47)"/></g></g><g id="svga-group-eyes-left-move"><g id="svga-group-eyes-left"><g id="svga-group-eyesback-left"><path id="SvgjsPath3540" class="cls-20" d="M238.82,220.73a16.25,16.25,0,0,1,.64,4.4,17.34,17.34,0,0,1-3.6,10.33c-10.19.1-42.41,1.77-47.33-.75-7-3.61-13.31-18.43-13.77-22.07C199.75,198.27,218.19,201.06,238.82,220.73Z" transform="translate(-5.35 -7.47)"/></g><g id="svga-group-eyesiriswrapper-left"><g id="svga-group-eyesiriscontrol-left"><g id="svga-group-eyesiris-left"><path id="SvgjsPath3724" class="cls-21" d="M223.87,220.11a15,15,0,0,1-30,0h0a15,15,0,0,1,30,0Z" transform="translate(-5.35 -7.47)"/><path id="SvgjsPath3725" class="cls-22" d="M207.19,205.28l-.17,0,.21,1C207.21,206,207.21,205.62,207.19,205.28Zm0,1c.17,4.93.46,9.32,1.29,10.91C209,215.48,208.21,211.15,207.23,206.31Zm1.29,10.92c-.11.41-.27.7-.52.79a1,1,0,0,1-.92-.25,1,1,0,0,1-.09.94,1.05,1.05,0,0,1-.93.2,1.08,1.08,0,0,1,.37.88c-.07.26-.34.45-.74.6.4.16.67.35.73.62a.62.62,0,1,0,.57,1.08,1.08,1.08,0,0,1,.08.95,1,1,0,0,1,.92-.25c.25.09.41.38.51.8.2-.38.43-.63.7-.65s.54.14.82.47a1.08,1.08,0,0,1,.32-.9,1,1,0,0,1,.95,0,.81.81,0,0,1,.72-1.36c-.35-.24-.57-.5-.56-.77s.21-.52.57-.76c-.43-.06-.73-.18-.86-.42a.62.62,0,1,0-.8-.91.62.62,0,1,0-1.14-.44C209,217.84,208.72,217.61,208.52,217.23Zm1.52.18c1.2-1.34,2.55-5.52,3.92-10.26C211.83,211.6,210,215.62,210,217.41ZM214,207.15c.15-.3.31-.61.45-.92l-.16-.07C214.15,206.5,214.06,206.83,214,207.15Zm-2.66,11.14c1.68-.63,4.83-3.71,8.25-7.27C215.6,214,212.14,216.7,211.3,218.29Zm8.25-7.27.76-.56-.11-.12C220,210.56,219.77,210.8,219.55,211ZM212,219.65c1.78.22,6-1,10.68-2.6C217.82,217.82,213.49,218.63,212,219.65Zm10.68-2.6.84-.13,0-.14ZM212,221.18c1.47,1,5.79,1.87,10.65,2.66C218,222.26,213.79,221,212,221.18Zm10.65,2.66.72.24,0-.12Zm-11.37-1.3c.83,1.59,4.27,4.34,8.2,7.31C216.09,226.27,213,223.18,211.29,222.54Zm8.2,7.3c.15.16.31.32.45.48a.6.6,0,0,1,.08-.08ZM210,223.41c0,1.79,1.76,5.82,3.87,10.28C212.54,228.94,211.22,224.75,210,223.41Zm3.87,10.28c.06.19.11.38.16.57l.1,0C214.06,234.05,214,233.86,213.89,233.69Zm-5.39-10.11c-.84,1.6-1.15,6-1.35,10.91C208.16,229.66,208.93,225.33,208.5,223.58Zm-1.35,10.91c-.05.18-.08.38-.12.57h.1C207.13,234.88,207.14,234.68,207.15,234.49ZM207.07,223c-1.49,1-3.8,4.76-6.27,9C203.94,228.26,206.64,224.78,207.07,223Zm-6.27,9-.4.48.09.06C200.6,232.42,200.7,232.24,200.8,232.06Zm5.26-10.17c-1.79.2-5.58,2.44-9.74,5.07C200.86,225.05,204.86,223.23,206.06,221.89ZM196.31,227l-.65.28a.47.47,0,0,0,.05.1C195.92,227.22,196.12,227.09,196.31,227Zm9.38-6.57c-1.67-.64-6.07-.42-11,0C199.62,220.79,204,221,205.69,220.39Zm-11,0-.81-.08a.65.65,0,0,0,0,.14Zm11.35-1.46c-1.18-1.35-5.17-3.19-9.7-5.13C200.51,216.43,204.28,218.69,206.06,218.91Zm-9.7-5.13-.79-.5a.61.61,0,0,1-.07.14Zm10.72,4c-.42-1.74-3.1-5.23-6.21-9C203.31,213,205.6,216.74,207.08,217.76Zm-6.21-9c-.17-.29-.33-.58-.49-.87l-.14.09C200.44,208.19,200.67,208.45,200.87,208.71Z" transform="translate(-5.35 -7.47)"/><path id="SvgjsPath3729" class="cls-23" d="M211.09,205.33l-.18,0c0,.35,0,.69-.06,1Zm-.24,1c-1.1,4.81-2,9.13-1.57,10.88C210.15,215.64,210.55,211.26,210.85,206.33Zm-1.57,10.88c-.21.37-.44.61-.71.63s-.54-.16-.82-.48a.8.8,0,0,1-1.28.83,1.06,1.06,0,0,1,.12.95,1.05,1.05,0,0,1-.86.39c.34.26.55.51.54.78s-.22.52-.57.76a.8.8,0,0,1,.68,1.37.8.8,0,0,1,1.23.9c.3-.31.58-.49.85-.44s.48.28.67.67c.11-.42.28-.7.54-.79a1,1,0,0,1,.91.28,1.07,1.07,0,0,1,.11-.95.62.62,0,1,0,.59-1.07c.07-.26.34-.45.75-.59-.4-.16-.66-.36-.72-.62a.62.62,0,1,0-.54-1.1,1,1,0,0,1-.07-.94,1.05,1.05,0,0,1-.92.23C209.53,217.92,209.37,217.63,209.28,217.21Zm1.42.58c1.5-1,3.89-4.68,6.44-8.9C213.93,212.63,211.16,216.05,210.7,217.79Zm6.44-8.9c.22-.25.45-.51.67-.78l-.14-.1C217.5,208.31,217.32,208.6,217.14,208.89ZM211.69,219c1.79-.18,5.63-2.34,9.84-4.89C217,215.89,212.91,217.64,211.69,219Zm9.84-4.89.89-.34a.66.66,0,0,1-.07-.15ZM212,220.46c1.67.67,6.07.54,11,.25C218.11,220.19,213.72,219.85,212,220.46Zm11,.24.85.1v-.15Zm-11.39,1.23c1.16,1.38,5.12,3.31,9.61,5.33C217.13,224.52,213.4,222.19,211.62,221.93Zm9.61,5.33.62.42a1.05,1.05,0,0,1,.07-.11Zm-10.66-4.2c.39,1.75,3,5.3,6,9.19C214.25,227.91,212,224.11,210.57,223.06Zm6,9.18.31.57.1-.06Zm-7.48-8.67c-.47,1.73.19,6.08,1.08,10.93C210.13,229.57,209.94,225.18,209.13,223.57Zm1.07,10.93c0,.2,0,.4,0,.6h.1C210.28,234.9,210.24,234.7,210.2,234.5Zm-2.59-11.15c-1.22,1.32-2.66,5.47-4.13,10.18C205.71,229.13,207.58,225.15,207.61,223.35Zm-4.13,10.18c-.09.17-.17.34-.26.52l.09,0C203.37,233.9,203.43,233.71,203.48,233.53Zm2.89-11.08c-1.7.59-4.9,3.61-8.39,7.09C202,226.68,205.5,224,206.37,222.45ZM198,229.54l-.51.36.07.08C197.69,229.84,197.84,229.69,198,229.54Zm7.71-8.46c-1.78-.26-6,.91-10.72,2.38C199.85,222.79,204.19,222.06,205.69,221.08ZM195,223.46l-.71.1,0,.11Zm10.76-3.92c-1.46-1-5.76-2-10.61-2.87C199.76,218.35,203.94,219.72,205.73,219.54Zm-10.61-2.87-.76-.28c0,.05,0,.09,0,.14Zm11.35,1.53c-.8-1.61-4.17-4.42-8.05-7.46C201.74,214.37,204.8,217.53,206.47,218.2Zm-8.05-7.46-.63-.69-.1.11Zm9.33,6.62c0-1.8-1.64-5.86-3.66-10.35C205.34,211.77,206.59,216,207.75,217.36ZM204.09,207c-.08-.32-.17-.65-.25-1l-.16.06C203.82,206.4,204,206.7,204.09,207Z" transform="translate(-5.35 -7.47)"/><path id="SvgjsPath3733" class="cls-21" d="M214.76,220.11a5.89,5.89,0,1,1-5.88-5.88A5.88,5.88,0,0,1,214.76,220.11Z" transform="translate(-5.35 -7.47)"/><path id="SvgjsPath3734" class="cls-24" d="M214.76,220.11a5.89,5.89,0,1,1-5.88-5.88A5.88,5.88,0,0,1,214.76,220.11Z" transform="translate(-5.35 -7.47)"/><path id="SvgjsPath3735" class="cls-25" d="M200.67,227a2.45,2.45,0,1,1-.67,3.41,2.46,2.46,0,0,1,.67-3.41Z" transform="translate(-5.35 -7.47)"/><path id="SvgjsPath3739" class="cls-26" d="M213.52,219.29c-.62.94-2.42.83-4-.24s-2.38-2.69-1.75-3.63h0c.62-.93,2.42-.83,4,.25s2.38,2.68,1.75,3.62Z" transform="translate(-5.35 -7.47)"/><path id="SvgjsPath3743" class="cls-27" d="M220.67,216.79c-1.43,2.19-5.1,2.32-8.19.3s-4.46-5.43-3-7.61,5.09-2.31,8.19-.29,4.45,5.43,3,7.6Z" transform="translate(-5.35 -7.47)"/></g></g></g><g id="svga-group-eyesfront-left"><path id="SvgjsPath3565" class="cls-2" d="M161.5,208.85c0,34.52,20.15,78.51,45,78.51s45-28,45-62.5-20.15-62.5-45-62.5S161.5,174.33,161.5,208.85Zm13.26,3.79c25-14.37,43.42-11.58,64.06,8.09a16.25,16.25,0,0,1,.64,4.4,17.41,17.41,0,0,1-3.6,10.33c-10.19.1-42.41,1.77-47.34-.75C181.49,231.1,175.22,216.28,174.76,212.64Z" transform="translate(-5.35 -7.47)"/><path id="SvgjsPath3566" class="cls-28" d="M175,213.85c1.31,5,7.08,17.57,13.5,20.86,4.93,2.52,37.15.85,47.34.75a17.41,17.41,0,0,0,3.6-10.33,16.25,16.25,0,0,0-.64-4.4c-20.42-19.46-38.69-22.37-63.28-8.52,4.92-14.31,21.31-24.88,40.85-25,23.49-.1,42.55,14.95,42.61,33.62s-18.93,33.89-42.41,34-42.54-15-42.59-33.62A27.19,27.19,0,0,1,175,213.85Z" transform="translate(-5.35 -7.47)"/><path id="SvgjsPath3571" class="cls-29" d="M188.52,234.7c-7-3.6-13.3-18.42-13.76-22.06,25-14.38,43.42-11.58,64.06,8.09a16.24,16.24,0,0,1,.64,4.39,17.42,17.42,0,0,1-3.6,10.34C225.67,235.56,193.45,237.23,188.52,234.7Z" transform="translate(-5.35 -7.47)"/><path id="SvgjsPath3575" class="cls-17" d="M174.84,204.83c8.54-3.34,44.5-15.78,64.12,10.69C216.5,190.27,186,201.91,174.84,204.83Z" transform="translate(-5.35 -7.47)"/><path id="SvgjsPath3576" d="M169,211.29c3,5.86,15.9,25.4,18.9,25.55a231.61,231.61,0,0,0,50.78-2c-3.74-.47-44.56,2-50.15-.78-7-3.44-13.31-17.58-13.77-21.06,25.63-14.06,44.36-10.94,65.64,9.15C219.65,190.61,176.63,205,169,211.29Z" transform="translate(-5.35 -7.47)"/></g></g></g><g id="svga-group-eyes-right-move"><g id="svga-group-eyes-right"><g id="svga-group-eyesback-right"><path id="SvgjsPath3548" class="cls-30" d="M304.18,220.73a16.25,16.25,0,0,0-.64,4.4,17.34,17.34,0,0,0,3.6,10.33c10.19.1,42.41,1.77,47.34-.75,7-3.61,13.3-18.43,13.76-22.07C343.25,198.27,324.81,201.06,304.18,220.73Z" transform="translate(-5.35 -7.47)"/></g><g id="svga-group-eyesiriswrapper-right"><g id="svga-group-eyesiriscontrol-right"><g id="svga-group-eyesiris-right"><path id="SvgjsPath3747" class="cls-21" d="M350.12,220.11a15,15,0,1,1-30,0h0a15,15,0,1,1,30,0Z" transform="translate(-5.35 -7.47)"/><path id="SvgjsPath3748" class="cls-31" d="M333.44,205.28l-.17,0,.21,1C333.46,206,333.46,205.62,333.44,205.28Zm0,1c.17,4.93.46,9.32,1.29,10.91C335.21,215.48,334.46,211.15,333.48,206.31Zm1.29,10.92c-.11.41-.27.7-.52.79a1,1,0,0,1-.91-.25,1,1,0,0,1-.1.94,1.05,1.05,0,0,1-.93.2,1.08,1.08,0,0,1,.37.88c-.07.26-.34.45-.73.6.39.16.66.35.72.62s-.08.55-.36.87a1,1,0,0,1,.93.21,1.08,1.08,0,0,1,.08.95,1,1,0,0,1,.92-.25c.25.09.41.38.51.8.2-.38.43-.63.7-.65s.54.14.82.47c0-.43.09-.75.32-.9a1,1,0,0,1,1,0,.81.81,0,0,1,.72-1.36c-.35-.24-.57-.5-.56-.77s.21-.52.57-.76c-.43-.06-.73-.18-.86-.42a1.09,1.09,0,0,1,.14-.94.8.8,0,0,1-1.26-.87,1,1,0,0,1-.82.46C335.2,217.84,335,217.61,334.77,217.23Zm1.52.18c1.2-1.34,2.55-5.52,3.92-10.26C338.08,211.6,336.29,215.62,336.29,217.41Zm3.92-10.26c.15-.3.31-.61.45-.92l-.16-.07C340.4,206.5,340.31,206.83,340.21,207.15Zm-2.66,11.14c1.69-.63,4.84-3.71,8.25-7.27C341.85,214,338.39,216.7,337.55,218.29ZM345.8,211l.76-.56-.1-.12Zm-7.54,8.63c1.78.22,6-1,10.68-2.6C344.07,217.82,339.74,218.63,338.26,219.65Zm10.68-2.6.84-.13,0-.14Zm-10.68,4.13c1.47,1,5.79,1.87,10.65,2.66C344.25,222.26,340,221,338.26,221.18Zm10.66,2.66.71.24,0-.12Zm-11.38-1.3c.83,1.59,4.27,4.34,8.2,7.31C342.35,226.27,339.22,223.18,337.54,222.54Zm8.2,7.3.45.48a.3.3,0,0,1,.08-.08Zm-9.46-6.43c0,1.79,1.75,5.82,3.86,10.28C338.79,228.94,337.47,224.75,336.28,223.41Zm3.86,10.28c.06.19.11.38.16.57l.1,0C340.32,234.05,340.23,233.86,340.14,233.69Zm-5.39-10.11c-.84,1.6-1.15,6-1.35,10.91C334.41,229.66,335.18,225.33,334.75,223.58Zm-1.35,10.91c0,.18-.08.38-.12.57h.1C333.38,234.88,333.39,234.68,333.4,234.49ZM333.32,223c-1.49,1-3.8,4.76-6.27,9C330.19,228.26,332.89,224.78,333.32,223Zm-6.27,9-.4.48.09.06C326.85,232.42,327,232.24,327.05,232.06Zm5.26-10.17c-1.79.2-5.58,2.44-9.74,5.07C327.11,225.05,331.11,223.23,332.31,221.89ZM322.57,227l-.66.28a.27.27,0,0,0,.06.1Zm9.38-6.57c-1.68-.64-6.08-.42-11,0C325.87,220.79,330.26,221,332,220.39Zm-11,0-.81-.08a.65.65,0,0,0,0,.14Zm11.35-1.46c-1.18-1.35-5.17-3.19-9.7-5.13C326.76,216.43,330.53,218.69,332.31,218.91Zm-9.7-5.13-.79-.5a.61.61,0,0,1-.07.14Zm10.72,4c-.42-1.74-3.1-5.23-6.21-9C329.56,213,331.85,216.74,333.33,217.76Zm-6.21-9c-.17-.29-.33-.58-.49-.87l-.14.09C326.7,208.19,326.92,208.45,327.12,208.71Z" transform="translate(-5.35 -7.47)"/><path id="SvgjsPath3752" class="cls-32" d="M337.34,205.33l-.18,0-.06,1Zm-.24,1c-1.11,4.81-2,9.13-1.57,10.88C336.4,215.64,336.8,211.26,337.1,206.33Zm-1.57,10.88c-.21.37-.45.61-.71.63s-.54-.16-.82-.48a.8.8,0,0,1-1.28.83,1.06,1.06,0,0,1,.12.95,1.05,1.05,0,0,1-.86.39c.34.26.55.51.54.78s-.22.52-.57.76a.8.8,0,0,1,.68,1.37,1,1,0,0,1,.95,0,1,1,0,0,1,.28.9c.3-.31.58-.49.85-.44s.48.28.67.67c.12-.42.28-.7.54-.79a1,1,0,0,1,.91.28,1.07,1.07,0,0,1,.11-.95.62.62,0,1,0,.59-1.07c.07-.26.34-.45.75-.59-.4-.16-.66-.36-.72-.62A1.1,1.1,0,0,1,338,219a.8.8,0,0,1-1-1.16,1.05,1.05,0,0,1-.92.23C335.78,217.92,335.62,217.63,335.53,217.21Zm1.42.58c1.5-1,3.89-4.68,6.44-8.9C340.18,212.63,337.41,216.05,337,217.79Zm6.44-8.9c.23-.25.45-.51.68-.78a.85.85,0,0,1-.14-.1ZM337.94,219c1.79-.18,5.62-2.34,9.84-4.89C343.2,215.89,339.16,217.64,337.94,219Zm9.84-4.89.89-.34-.07-.15Zm-9.51,6.39c1.67.67,6.07.54,11,.25C344.35,220.19,340,219.85,338.27,220.46Zm11,.24.85.1v-.15Zm-11.39,1.23c1.16,1.38,5.12,3.31,9.61,5.33C343.38,224.52,339.65,222.19,337.87,221.93Zm9.61,5.33.62.42s0-.08.06-.11Zm-10.65-4.2c.38,1.75,3,5.3,6,9.19C340.5,227.91,338.29,224.11,336.83,223.06Zm6,9.18.31.57.09-.06Zm-7.48-8.67c-.47,1.73.19,6.08,1.08,10.93C336.38,229.57,336.19,225.18,335.38,223.57Zm1.07,10.93c0,.2,0,.4,0,.6h.1C336.53,234.9,336.49,234.7,336.45,234.5Zm-2.59-11.15c-1.22,1.32-2.66,5.47-4.13,10.18C332,229.13,333.83,225.15,333.86,223.35Zm-4.13,10.18c-.09.17-.17.34-.26.52l.09,0C329.62,233.9,329.68,233.71,329.73,233.53Zm2.89-11.08c-1.7.59-4.9,3.61-8.39,7.09C328.25,226.68,331.75,224,332.62,222.45Zm-8.39,7.09-.51.36.07.08Zm7.71-8.46c-1.78-.26-6,.91-10.72,2.38C326.1,222.79,330.44,222.06,331.94,221.08Zm-10.72,2.38-.71.1a.76.76,0,0,0,0,.11ZM332,219.54c-1.46-1-5.76-2-10.61-2.87C326,218.35,330.19,219.72,332,219.54Zm-10.61-2.87-.76-.28c0,.05,0,.09,0,.14Zm11.35,1.53c-.8-1.61-4.17-4.42-8.05-7.46C328,214.37,331.05,217.53,332.72,218.2Zm-8.05-7.46-.63-.69a1.14,1.14,0,0,1-.11.11C324.18,210.36,324.43,210.54,324.67,210.74Zm9.33,6.62c0-1.8-1.64-5.86-3.66-10.35C331.59,211.77,332.84,216,334,217.36ZM330.34,207c-.08-.32-.17-.65-.25-1l-.16.06C330.07,206.4,330.21,206.7,330.34,207Z" transform="translate(-5.35 -7.47)"/><path id="SvgjsPath3756" class="cls-21" d="M341,220.11a5.89,5.89,0,1,1-5.88-5.88A5.88,5.88,0,0,1,341,220.11Z" transform="translate(-5.35 -7.47)"/><path id="SvgjsPath3757" class="cls-24" d="M341,220.11a5.89,5.89,0,1,1-5.88-5.88A5.88,5.88,0,0,1,341,220.11Z" transform="translate(-5.35 -7.47)"/><path id="SvgjsPath3758" class="cls-33" d="M326.92,227a2.45,2.45,0,1,1-.67,3.41,2.46,2.46,0,0,1,.67-3.41Z" transform="translate(-5.35 -7.47)"/><path id="SvgjsPath3762" class="cls-34" d="M339.77,219.29c-.63.94-2.42.83-4-.24s-2.38-2.69-1.75-3.63h0c.63-.93,2.42-.83,4,.25s2.37,2.68,1.74,3.62Z" transform="translate(-5.35 -7.47)"/><path id="SvgjsPath3766" class="cls-35" d="M346.92,216.79c-1.43,2.19-5.09,2.32-8.19.3s-4.46-5.43-3-7.61,5.09-2.31,8.19-.29,4.45,5.43,3,7.6Z" transform="translate(-5.35 -7.47)"/></g></g></g><g id="svga-group-eyesfront-right"><path id="SvgjsPath3586" class="cls-2" d="M336.5,162.36c-24.85,0-45,28-45,62.5s20.15,62.5,45,62.5,45-40.57,45-75.08S361.35,162.36,336.5,162.36Zm18,72.34c-4.93,2.53-37.15.86-47.34.76a17.42,17.42,0,0,1-3.6-10.34,16.24,16.24,0,0,1,.64-4.39c20.64-19.67,39.07-22.47,64.06-8.09C367.78,216.28,361.51,231.1,354.48,234.7Z" transform="translate(-5.35 -7.47)"/><path id="SvgjsPath3587" class="cls-36" d="M368,213.85c-1.31,5-7.08,17.57-13.5,20.86-4.93,2.52-37.15.85-47.34.75a17.41,17.41,0,0,1-3.6-10.33,16.25,16.25,0,0,1,.64-4.4c20.42-19.46,38.69-22.37,63.28-8.52-4.92-14.31-21.31-24.88-40.85-25-23.48-.1-42.55,14.95-42.61,33.62s18.93,33.89,42.41,34,42.54-15,42.59-33.62A27.19,27.19,0,0,0,368,213.85Z" transform="translate(-5.35 -7.47)"/><path id="SvgjsPath3592" class="cls-37" d="M354.48,234.7c7-3.6,13.3-18.42,13.76-22.06-25-14.38-43.43-11.58-64.06,8.09a16.24,16.24,0,0,0-.64,4.39,17.35,17.35,0,0,0,3.6,10.34C317.33,235.56,349.55,237.23,354.48,234.7Z" transform="translate(-5.35 -7.47)"/><path id="SvgjsPath3596" class="cls-17" d="M304,215.52c19.63-26.47,55.59-14,64.13-10.68C357.05,201.91,326.5,190.27,304,215.52Z" transform="translate(-5.35 -7.47)"/><path id="SvgjsPath3597" d="M374,211.29c-3,5.86-15.9,25.4-18.9,25.55a231.61,231.61,0,0,1-50.78-2c3.74-.47,44.56,2,50.15-.78,7-3.44,13.31-17.58,13.77-21.06-25.63-14.06-44.36-10.94-65.64,9.15C323.35,190.61,366.37,205,374,211.29Z" transform="translate(-5.35 -7.47)"/></g></g></g><g id="svga-group-facehighlight-single"><path id="SvgjsPath2906" class="cls-38" d="M374.5,293.8A102.5,102.5,0,1,1,271.84,191.36,102.45,102.45,0,0,1,374.5,293.8Z" transform="translate(-5.35 -7.47)"/><path id="SvgjsPath2910" class="cls-39" d="M365.75,143.86A93.75,93.75,0,1,1,272,50.11,93.75,93.75,0,0,1,365.75,143.86Z" transform="translate(-5.35 -7.47)"/></g><g id="svga-group-eyebrows-left-move"><g id="svga-group-eyebrows-left-rotate"><g id="svga-group-eyebrows-left"><path id="SvgjsPath3772" class="cls-1" d="M153.22,193.54c18.69-23.46,50.84-19.56,77.19-15.79,6.71,1,13.61,1.68,20.18,3.34,4.71,1.19,8.41,6.56,4.63,10.89-1.77,2.06-5.64,1.68-8,1.63C215.65,193,180,174.83,153.22,193.54Z" transform="translate(-5.35 -7.47)"/></g></g></g><g id="svga-group-eyebrows-right-move"><g id="svga-group-eyebrows-right-rotate"><g id="svga-group-eyebrows-right"><path id="SvgjsPath3773" class="cls-1" d="M390.94,192.59a43.91,43.91,0,0,0-17.61-7.23c-23.74-3.85-69,12-80.85,8.63-7.28-2.06-5.81-9.35-2.59-11.15,1.94-1.08,2.48-1.05,19.78-4C339.06,173.76,372,169.75,390.94,192.59Z" transform="translate(-5.35 -7.47)"/></g></g></g><g id="svga-group-nose-single-move"><g id="svga-group-nose-single"><path id="SvgjsPath3116" class="cls-17" d="M284.67,303.58c2.64,0,3.35.7,3.35,1.56s-.82,2.2-3.35,1.56a32.36,32.36,0,0,0-7.61-.37S282,303.58,284.67,303.58Zm-25.13,0c-2.63,0-3.34.7-3.34,1.57s.79,2.1,3.34,1.56a39.06,39.06,0,0,1,7.62-.38S262.18,303.59,259.54,303.58Zm34-9.35s3.65,4.14,2.89,8.51-8.1,6.12-8.1,6.12,5.11-3.24,5.73-7.19C294.33,299.84,293.52,294.23,293.52,294.23Zm-45-4.25s-2.66,5.79-1.89,9.31c1.4,6.37,9.07,8.92,9.07,8.92s-4.79-4.37-6.49-8.23C247.37,295.77,248.54,290,248.54,290Z" transform="translate(-5.35 -7.47)"/><path id="SvgjsPath3117" class="cls-3" d="M284.55,297.31c2.55-1.9,2.81-3,2.28-3.69s-2.06-1.16-4.2,1.13c-2.35,2.53-7.48,4.39-7.48,4.39S282,299.22,284.55,297.31Z" transform="translate(-5.35 -7.47)"/></g></g><g id="svga-group-beardwrap"><g id="svga-group-beard-single-move"><g id="svga-group-beard-single"><path id="SvgjsPath3841" class="cls-1" d="M203.05,409.51c-14.53-9.3-33-27.77-39.75-36.92-19.15-24.48-11.65-44.88-21.33-87.88C137,266,128.82,238.46,127.82,231.59c2.3.35,14.45,2,16.5,2.32,3,23.48,29.48,40.2,34,88.48,4,30.35,19,45.05,43.53,60.2,10.4,6.45,30.45,17,35.2,5.6,3.85-9.18-2.75-27.8,13.25-30.83,3.33-.6,10.45.7,13.17,6.88,4.38,9.9-2.27,28.9,11.9,28.9,14.7,0,40.06-18.88,47.13-25.4,27.78-22.8,18.7-50.43,31.45-80.68,14.73-32.6,19.3-28.4,25.68-53.17,1.72-.18,14.75-2.08,16.5-2.3-10.43,42.45-18.7,63-19.8,89.9-2,39.92-14,52.5-40.93,77.12-15.07,13-33.77,25.8-80.92,27.7C260.92,427.21,222.25,422.14,203.05,409.51Z" transform="translate(-5.35 -7.47)"/><path id="SvgjsPath3842" class="cls-40" d="M260.45,364.64c1.55-3.63,4.4-6.48,9.82-7.5,3.4-.6,10.7.75,13.45,7,.1.2.15.43.23.63C279.72,368.51,273.25,389.86,260.45,364.64Zm114.05-.78c-20.18,35.85-56.4,55.63-96.1,55.75a126.41,126.41,0,0,1-12.78,0c-39.72-.12-76-19.9-96.12-55.75-23.07-34.6-18.47-77.72-37.27-113.62,3,10.8,6.75,24,9.52,34.55,9.68,43,2.18,63.45,21.38,88,7,9.45,25.39,27.75,39.8,37,18.27,12,53.64,17.17,69.07,16.95,15.42.22,50.82-4.93,69.07-16.95,14.4-9.23,32.78-27.53,39.8-37,19.2-24.52,11.7-45,21.38-88,2.77-10.58,6.55-23.75,9.52-34.55C393,286.14,397.57,329.26,374.5,363.86Z" transform="translate(-5.35 -7.47)"/><path id="SvgjsPath3843" d="M399.45,233.69c-6.38,24.92-10.93,20.62-25.7,53.32-12.83,30.4-3.65,57.83-31.4,80.6-7,6.4-36.45,28.53-50.3,24.93-9.58-3.55-4.25-19.13-8.33-28.35-2.75-6.28-10.05-7.63-13.45-7-16.15,3-9.62,21.93-13.42,31-4.68,11.12-24.65.6-34.85-5.73-25.2-15.55-39.55-30.62-43.4-60-4.55-48.53-31.15-65.15-34-88.68-.25-.05-16.75-2.3-17-2.4.77,6.28,9.12,34.25,14.2,53.48,9.67,43,2.17,63.45,21.37,88,7,9.45,25.4,27.75,39.8,37,19.35,12.72,57.9,17.77,71.6,16.85,46.93-1.9,65.85-14.68,81.08-27.78,27.4-25.05,39-37.52,41-77.3,1.1-26.95,9.32-47.17,19.87-90.2C416.35,231.31,400.05,233.69,399.45,233.69ZM392.4,321c-3.33,40.12-11.48,48.82-38.65,73.6-19.33,16.67-39.73,26.2-81.85,29.2-18.8-1.43-52.23-7.55-68-18.63-16.4-11.1-33.3-29.85-37.68-35.8-18.05-23.17-9.4-44.5-20.9-85.45C137.8,260.31,134.05,252.71,128,232c2.5.35,8.43,1.55,16.4,2.33,3.38,26.67,26.3,39.92,30.43,88.35.87,5.8,1.92,17.15,10.07,30.67a68.57,68.57,0,0,0,14.25,17.13c14,12.9,60.45,43.47,61.1,10.27.1-9.05-1.15-21.47,11.8-23.37,21.83,3.1,3.15,32.62,19.4,37.77,15.55,4.38,67.8-22.22,76-62.45,4.25-15.07-2.18-25.82,21.25-70,6.2-11.25,9.22-16.43,10.95-28.35,3.07-.3,14.32-1.75,16.4-2.35C406.8,263.09,394.12,291.64,392.4,321Z" transform="translate(-5.35 -7.47)"/></g></g></g><g id="svga-group-mustache-single-move"><g id="svga-group-mustache-single"><path id="SvgjsPath3794" class="cls-1" d="M272,54.19Z" transform="translate(-5.35 -7.47)"/></g></g><g id="svga-group-hair-front"><path id="SvgjsPath3869" class="cls-1" d="M418.07,112.18C372-3,272,9.87,272,9.87S172-3,125.92,112.17C102.81,170,131.32,238,131.32,238h14.56c-12.73-54.38,2-44.16,2.94-54.31.3-3.14-.75-8.42-1-11.55-1.48-15.28,5-45.08,13.11-57.94,4-6.31,13.43-16.65,20.44-19.25,24.92-9.23,50.11,1.79,57.13,3.56,11.16,2.8,55.94,2.8,67.09,0,8.36-2.1,33-12.27,57.14-3.3,7,2.6,17.18,12.43,21.18,18.74,8.16,12.86,13.85,40.4,12.37,55.68-.3,3.14-1.35,10.92-1.06,14.06.27,2.87,6.55,9.22,7.25,12,2.9,11.53-4.31,42.29-4.31,42.29h14.57S441.19,170,418.07,112.18Z" transform="translate(-5.35 -7.47)"/><path id="SvgjsPath3870" d="M409.35,86.77C362.44,1.08,277,7.29,272,7.72c-4.95-.44-90.44-6.64-137.35,79.05-36.23,66.19-8.73,142.44-5.38,151.12.19.49,3.94.1,3.94.1s-.26-1-.42-1.38c-3-7.8-30.47-83,5.15-148C184.78,3,271,11.38,271.85,11.48l.15-1.36.15,1.36c.86-.1,87.07-8.47,133.91,77.09,36.41,66.53,6.93,143.56,5,148.46-.05.13-.27.93-.28,1s3.77.42,3.94,0C417.93,229.6,445.67,153.13,409.35,86.77Z" transform="translate(-5.35 -7.47)"/></g><g id="svga-group-glasses-single-move"><g id="svga-group-glasses-single"><path id="SvgjsPath3783" class="cls-41" d="M251.22,231.94c-9.27,18.65-35.3,20.37-44.44,20.37H176.47c-14.37,0-27.15-20-27.15-35.72v-15.4a3,3,0,0,1,.73-1.75Zm46.7-31.45c-5.17,3.57-8.47,8.37-8.47,14.8v1.25a33.89,33.89,0,0,0,3.35,15.37c9.27,18.65,35.3,20.38,44.45,20.38h30.3c10.22,0,19.63-10.13,24.2-21.65Z" transform="translate(-5.35 -7.47)"/><path id="SvgjsPath3784" class="cls-42" d="M251.22,231.94,150,199.41c2.48-3.3,11-6.75,15.38-7.27a260.36,260.36,0,0,1,29.85-1.73c22.15,0,59.3,3.23,59.3,24.9v1.25A34.21,34.21,0,0,1,251.22,231.94Zm143.46-15.38v-15.4a3,3,0,0,0-.73-1.75c-2.47-3.3-11-6.75-15.37-7.27a260.52,260.52,0,0,0-29.85-1.73c-15.58,0-38.53,1.6-50.83,10.08l93.83,30.15A38.43,38.43,0,0,0,394.68,216.56Z" transform="translate(-5.35 -7.47)"/><path id="SvgjsPath3785" class="cls-43" d="M396.32,205.56v-4.4c0-5.25-12.25-10-17.52-10.62-23.55-2.8-78.8-5-89.25,16.9A69,69,0,0,0,272,204.21a69,69,0,0,0-17.55,3.23c-10.42-21.93-65.67-19.7-89.25-16.9-5.27.62-17.52,5.35-17.52,10.62v4.4H135.75v5.9h11.92v5.1c0,15.75,12.88,37.35,28.78,37.35h30.3c20.83,0,49.4-7.82,49.4-37.35v-1.25a18.81,18.81,0,0,0-.73-5.3c8.65-2.67,13.88-3.22,16.56-3.27s7.9.6,16.55,3.27a18.81,18.81,0,0,0-.73,5.3v1.25c0,29.53,28.6,37.35,49.4,37.35h30.3c15.9,0,28.78-21.6,28.78-37.35v-5.1H408.2v-5.9Zm-142.17,11c0,32.78-36.25,35.33-47.37,35.33H176.47c-14.15,0-26.75-19.75-26.75-35.33v-15.4c0-3.27,10.23-7.95,15.73-8.6a259.88,259.88,0,0,1,29.8-1.72c22,0,58.88,3.17,58.88,24.47v1.25Zm140.13,0c0,15.58-12.6,35.33-26.75,35.33h-30.3c-11.13,0-47.38-2.55-47.38-35.33v-1.25c0-21.3,36.9-24.47,58.87-24.47a259.4,259.4,0,0,1,29.8,1.72c5.5.65,15.76,5.33,15.76,8.6Z" transform="translate(-5.35 -7.47)"/></g></g></g></g></g></g></svg>