<svg xmlns="http://www.w3.org/2000/svg" xmlns:xlink="http://www.w3.org/1999/xlink" viewBox="0 0 750.21 500"><defs><style>.cls-1{opacity:0.71;fill:url(#radial-gradient);}.cls-2{opacity:0.4;}.cls-3{fill:#fefefe;}.cls-4{opacity:0.33;}.cls-5{fill:url(#linear-gradient);}.cls-6{fill:url(#linear-gradient-2);}.cls-7{opacity:0.22;}.cls-8{fill:url(#linear-gradient-3);}.cls-9{fill:url(#linear-gradient-4);}.cls-10{fill:url(#linear-gradient-5);}.cls-11{fill:url(#linear-gradient-6);}.cls-12{fill:url(#linear-gradient-7);}.cls-13{fill:url(#linear-gradient-8);}.cls-14{fill:url(#linear-gradient-9);}.cls-15{fill:url(#linear-gradient-10);}.cls-16{fill:url(#linear-gradient-11);}</style><radialGradient id="radial-gradient" cx="332.13" cy="410.19" r="520.68" gradientUnits="userSpaceOnUse"><stop offset="0.02" stop-color="#febb9d"/><stop offset="0.49" stop-color="#ff7958"/><stop offset="0.61" stop-color="#f07560"/><stop offset="0.86" stop-color="#ca6b76"/><stop offset="0.93" stop-color="#be687d"/></radialGradient><linearGradient id="linear-gradient" x1="205.77" y1="241.3" x2="124.31" y2="548.44" gradientUnits="userSpaceOnUse"><stop offset="0" stop-color="#fc6f55"/><stop offset="1" stop-color="#c3687b"/></linearGradient><linearGradient id="linear-gradient-2" x1="0" y1="373.2" x2="358.5" y2="373.2" xlink:href="#linear-gradient"/><linearGradient id="linear-gradient-3" x1="350.3" y1="255.92" x2="750" y2="255.92" xlink:href="#linear-gradient"/><linearGradient id="linear-gradient-4" x1="516.58" y1="321.19" x2="750.21" y2="321.19" gradientUnits="userSpaceOnUse"><stop offset="0" stop-color="#e16771"/><stop offset="1" stop-color="#a85a73"/></linearGradient><linearGradient id="linear-gradient-5" x1="217.46" y1="281.55" x2="225.55" y2="478.14" gradientUnits="userSpaceOnUse"><stop offset="0" stop-color="#e16771"/><stop offset="1" stop-color="#7a314b"/></linearGradient><linearGradient id="linear-gradient-6" x1="166.21" y1="237.58" x2="143.56" y2="570.07" gradientUnits="userSpaceOnUse"><stop offset="0" stop-color="#8b7198"/><stop offset="1" stop-color="#28203f"/></linearGradient><linearGradient id="linear-gradient-7" y1="419.18" x2="310.83" y2="419.18" gradientUnits="userSpaceOnUse"><stop offset="0" stop-color="#433d6c"/><stop offset="1" stop-color="#392e54"/></linearGradient><linearGradient id="linear-gradient-8" x1="235.62" y1="377.72" x2="725.31" y2="377.72" xlink:href="#linear-gradient-7"/><linearGradient id="linear-gradient-9" x1="497.25" y1="287.81" x2="496.29" y2="540.35" xlink:href="#linear-gradient-6"/><linearGradient id="linear-gradient-10" x1="347.57" y1="363.36" x2="346.65" y2="544.96" gradientUnits="userSpaceOnUse"><stop offset="0" stop-color="#433d6c"/><stop offset="1" stop-color="#06040f"/></linearGradient><linearGradient id="linear-gradient-11" x1="606.12" y1="300.61" x2="587.27" y2="577.41" xlink:href="#linear-gradient-10"/></defs><title>lanscape</title><g id="BACKGROUND"><rect class="cls-1" width="750" height="500"/></g><g id="OBJECTS"><g class="cls-2"><path class="cls-3" d="M407.89,229.57a29.77,29.77,0,0,1,27-6.58c3,.78,6.05,2.07,9.14,1.61a23,23,0,0,0,5.64-2.11,30.56,30.56,0,0,1,24.9.34c-.83-7.93,8.86-14.8,16.06-11.39-2-4.45,1.91-9.8,6.65-11s9.67.67,14,2.93a13.52,13.52,0,0,1,16.7-3.65,21.46,21.46,0,0,1,38.51-8.63c3.62-5.46,12.21-6.7,17.23-2.49,1.4-11.43,10.21-21.44,21.2-24.84s23.61-.29,32.19,7.38,13,19.53,12.26,31c14.76-4.23,31.93,7.17,33.76,22.41a29.79,29.79,0,0,1,20.44,3.11,6.18,6.18,0,0,1,3.14,3.11c.48,1.44-.44,3.37-1.95,3.34"/></g><g class="cls-2"><path class="cls-3" d="M388.55,254.13c-5.08-7.68-15-10.7-22.86-6.94-1.7.82-3.39,1.94-5.24,1.89s-3.63-1.4-5.29-2.54a32.15,32.15,0,0,0-34.26-1.33c.35-7.34-3.78-14.7-9.83-17.51a15.14,15.14,0,0,0-18,4.59c-7.32-14.07-20.71-24.23-35.17-25.48s-29.5,6.94-36.77,21.05c-.94,1.84-2,4-3.85,4.38-1.53.33-3-.66-4.29-1.65-11.44-8.81-22.11-21.23-36-22.05-13.06-.77-25.39,10.31-29.33,24.32-.51,1.81-1.06,3.88-2.59,4.69-1.21.64-2.64.24-3.93-.18-6.32-2-12.82-4.26-19.36-3.41s-13.16,5.7-14.35,13a38.06,38.06,0,0,0-36.4,1.43"/></g><g class="cls-2"><path class="cls-3" d="M420.93,131.52c2.54-2.22,7.52-3.09,11.44-2a9.26,9.26,0,0,0,2.62.54,7.56,7.56,0,0,0,2.65-.73,26.34,26.34,0,0,1,17.14-.39c-.17-2.13,1.89-4.26,4.92-5.07a11.44,11.44,0,0,1,9,1.33c3.67-4.08,10.36-7,17.6-7.38s14.76,2,18.4,6.1a3,3,0,0,0,1.93,1.26,4.16,4.16,0,0,0,2.15-.47c5.72-2.56,11.06-6.15,18-6.39,6.53-.22,12.7,3,14.67,7a2.15,2.15,0,0,0,1.3,1.36,4.25,4.25,0,0,0,2,0,37.87,37.87,0,0,1,9.68-1c3.27.25,6.59,1.65,7.19,3.76a31.54,31.54,0,0,1,18.21.41"/></g><g class="cls-2"><path class="cls-3" d="M365.08,161a26.15,26.15,0,0,0-24.73-5.87,6.46,6.46,0,0,1-3.29.43c-1.51-.39-2.4-1.9-3.34-3.15a14.32,14.32,0,0,0-23.9,1.55c-5.53-2.5-8.5-8.64-13.57-12a15.84,15.84,0,0,0-24.15,9.55,13.11,13.11,0,0,0-17.77,1.38,51.18,51.18,0,0,0-29.53-25c-8.48-2.71-18.59-2.85-25.41,2.87-5.19,4.35-7.49,11.18-9.28,17.72-6.14-5.67-16.76-5.5-22.7.37-1.48,1.46-2.8,3.28-4.78,3.87-2.94.89-5.81-1.22-8.57-2.55a18.42,18.42,0,0,0-19.48,2.5,11.39,11.39,0,0,1-3.69,2.59c-1.91.6-3.94-.17-5.88-.65a20.46,20.46,0,0,0-18.85,5.09"/></g><g class="cls-4"><path class="cls-5" d="M283.49,326.42c-8.45,1.25-17.16,2.49-25.47.48-12.62-3.06-23.23-13.35-36.22-13.53-5.18-.07-10.3,1.53-15.48,1.24-6.22-.34-11.93-3.36-17.55-6.06a207.82,207.82,0,0,0-55-17.57c-5-.86-10.08-1.56-14.6-3.79-4.85-2.4-8.7-6.4-13.16-9.46A39.49,39.49,0,0,0,87.65,271c-4.44-.44-9-.13-13.34-.89-7.75-1.35-14.51-5.89-21.2-10-15-9.25-31.45-17.14-49-17.92A7.66,7.66,0,0,0,0,243.23V441.79l280.36-8.14,111.18-118.9C360.3,319.37,314.73,321.8,283.49,326.42Z"/></g><g class="cls-4"><path class="cls-6" d="M327,324c-11.23.26-22.69,1.86-33.54-.95-7-1.81-13.33-5.37-20-8.17-14-5.89-29.14-8.41-44.16-10.88L201,299.38c-3.6-.6-7.27-1.21-10.5-2.85-3.79-1.92-6.69-5.1-9.8-7.95-9.76-8.95-24.29-15.13-36.66-10-7.13,3-13.9,9.5-21.31,7.3-1.65-.48-3.34-1.41-5-.9s-2.49,2.11-4,2.7c-2.94,1.13-5.75-2.09-8.89-2.53-5.59-.77-8.51,6.95-14,8.36-3.64.94-7.53-1.19-11.2-.38s-6,4.09-9.34,5.41c-7.06,2.74-14-3.88-18.56-9.77L34.42,266.32c-3.18-4.11-6.59-8.4-11.5-10.35s-11.69-.41-13.45,4.43a36.49,36.49,0,0,0-7.72-11.28A10.14,10.14,0,0,0,0,247.67V462.74l8.72,36,349.78-166C350.39,325.26,338.2,323.76,327,324Z"/></g><g class="cls-7"><path class="cls-8" d="M750,192.49a19.1,19.1,0,0,0-11.56,8.17c-2.21,3.35-4.4,7.9-7.94,7.69-1.44-.08-2.79-1-4.23-1.08-5.13-.2-7.89,10.11-12.87,8.66a2.7,2.7,0,0,0-2.57-3.34c-1.5.1-2.73,1.38-3.78,2.67a46.76,46.76,0,0,0-7.72,14c-1.76-6-8.55-7.93-13.45-5.51s-8.32,7.76-11.5,12.87L657,264.58c-4.56,7.33-11.5,15.57-18.56,12.15-3.39-1.64-5.78-5.76-9.34-6.73s-7.57,1.64-11.21.48c-5.45-1.76-8.38-11.36-14-10.4-3.14.54-5.94,4.55-8.89,3.14-1.52-.73-2.45-2.76-4-3.36s-3.33.52-5,1.13c-7.42,2.73-14.19-5.41-21.32-9.08-12.37-6.38-26.89,1.31-36.66,12.45-3.1,3.54-6,7.5-9.79,9.89-3.23,2-6.9,2.8-10.5,3.54l-28.31,5.79c-15,3.07-30.21,6.2-44.17,13.54-6.63,3.48-13,7.91-20,10.16-10.85,3.5-22.31,1.5-33.53,1.18S358.41,310,350.3,319.35H750Z"/></g><path class="cls-9" d="M750.21,236.12c-.58-.62-1.15-1.25-1.74-1.87-5.68-5.95-12.6-12.05-20.82-11.77s-15.47,7.12-23.79,6.87c-7.57-.23-14.13-6.33-21.7-6.11-5.8.17-10.77,4-15.33,7.6-34,26.78-111.47,66.1-150.25,85.24L750.21,419.91Z"/><path class="cls-10" d="M84.67,327.94c3-8.32,13.8-10.13,22.65-10.61l10.67-.58a26,26,0,0,1,7.21.28,31.93,31.93,0,0,1,6.71,2.79,138.32,138.32,0,0,0,16.7,6.43c8.46,2.85,17.09,5.73,26,5.77A42,42,0,0,0,194,327.38a34.11,34.11,0,0,1,6.7-3.09c6.48-1.69,13.1,2.22,18,6.84s9,10.22,15,13.21c8.3,4.15,18.19,2.42,27.41,3.5,14.4,1.7,28.64,10.43,42.51,6.21,4.2-1.27,8-3.67,12-5.29,13.61-5.42,30.51-1,39.76,10.33l-52.43,68.34"/><path class="cls-11" d="M280.15,383.09c-7.9-4.39-16.86-6.4-25.68-8.36l-36.55-8.13a22.07,22.07,0,0,1-6.89-2.36c-3.12-1.93-5.08-5.26-7.9-7.62-4.62-3.87-10.55-4.53-16.72-4.77a5.52,5.52,0,0,1-.41-1,7.08,7.08,0,0,1-3.62.65l-.63-4.23c-2.79.75-.89,3.32-3.89,3.94l-1.37-1.1a9.26,9.26,0,0,0-2.34,1l.12,0-.14,0,0,0-.91-.26.07.14a25.88,25.88,0,0,1-5.76-1.66l-.78-.38,6.47,1.9a5.23,5.23,0,0,1-.36-4c.2-.59.51-1.18,0-1.83a4.94,4.94,0,0,0-3.54-1.3c-.21-1.93-.43-3.87-.64-5.8a11.39,11.39,0,0,0-3.46,3.64l-.93-1.38a2.59,2.59,0,0,0-.95,2.05c0,.47.16,1-.49,1.26s-2.44,0-2.63-.47l-1,.27-.72-3.6A.84.84,0,0,0,158,339a4.15,4.15,0,0,0-2.84-.05,8.24,8.24,0,0,0-.69-4.34l-4.11,3.9c-.59-.27-1.2-.5-1.81-.73a12.42,12.42,0,0,1-1.26-2.53l-1.36,0a7.9,7.9,0,0,0-1-4.5,19.5,19.5,0,0,0-2.83,1.73l1.17-7.61a2.27,2.27,0,0,0-2.39,1.27c-.94,1.79-1.87,3.59-2.8,5.38l-.15-3.44-2,4.27a1.72,1.72,0,0,1-2.1.59v-3.4a5.64,5.64,0,0,0-1.6,4c0,.65.13,1.34-.42,1.87a1.64,1.64,0,0,1-.35.24,13.44,13.44,0,0,1-3-.26,7.48,7.48,0,0,0,.48-5.36l-2,4.82c-2.93-1.35-4.66-4.43-6.56-7.08a34.24,34.24,0,0,0-9.79-9.13c-.1-.76-.21-1.53-.31-2.29a5.24,5.24,0,0,0-.88,1.58,35.52,35.52,0,0,0-8.41-3.47c-.72-1.26-2.37-2.09-3.57-1.32q-.86-7-1.69-14.08a46.26,46.26,0,0,0-2.74,10.61c-.38-1-.77-2-1.16-3a14.45,14.45,0,0,0-.56,5.51c0,.36.08.73.11,1.11-1.5,0-3,.07-4.52.08L86,308.07a2.16,2.16,0,0,0-.58-1.39c-.88-.71-2.11.27-2.8,1.17a44.16,44.16,0,0,0-1.47-10.41q-2,6.85-4,13.71a44.38,44.38,0,0,1-3-8.83l-1.34.55A39.73,39.73,0,0,0,71,292.22a46.87,46.87,0,0,0-2.46,5.57l-.25-19.39c-1.52.66-1.92,2.59-2.12,4.24q-.89,7.32-1.76,14.63l-.78-8.47-1.2,11.53a4.33,4.33,0,0,1-.18.82c-.63-.1-1.27-.19-1.92-.26l-.48-6.56a33.09,33.09,0,0,0-.9,6.43c-1.11-.08-2.24-.14-3.37-.19-.12-1-.26-1.93-.44-2.89-.08,1-.17,1.91-.25,2.87-5.47-.21-11-.34-15.53-3.12-4.26-2.62-7-7.31-11.44-9.64S18,285.86,13.1,284.74c-4.64-1.05-8.84-3.48-13.1-5.68V417.87L32.48,478l153,5.23L318.2,404.68C303.45,403.76,293.08,390.26,280.15,383.09Z"/><path class="cls-12" d="M299.32,432.63c-7.78-5.38-17.22-7.93-25.57-12.43-14.59-7.87-25.69-21.55-39.79-29.71l-.42-3.55a7,7,0,0,0-1.09,2.71,51.13,51.13,0,0,0-7.74-3.43,7.19,7.19,0,0,0-.31-1.19c-.62-1.64-2.43-2.82-3.72-1.84q-.84-8.26-1.69-16.51a62.62,62.62,0,0,0-2.73,12.43l-1.17-3.48a19.73,19.73,0,0,0-.56,6.46c.05.58.12,1.19.13,1.79-1.51-.21-3-.39-4.55-.53q-.42-3-.82-6a2.73,2.73,0,0,0-.59-1.63c-.88-.85-2.11.31-2.8,1.37a60,60,0,0,0-1.47-12.2q-2,8-4,16.06a58.3,58.3,0,0,1-3-10.35l-1.34.65a53.76,53.76,0,0,0-1.85-12.48,59.91,59.91,0,0,0-2.46,6.52l-.24-22.71c-1.52.77-1.93,3-2.12,5l-1.77,17.15-.78-9.93-1.2,13.51c-.13,1.39-.82,3.26-2,2.83-.2-3.29-.41-6.58-.61-9.86a44.38,44.38,0,0,0-.86,12.34,18.5,18.5,0,0,1-.07,5.66,5.13,5.13,0,0,1-.41,1.11c-.92-.17-1.85-.33-2.77-.53a62.45,62.45,0,0,0-.61-14.65q-.52,7.14-1.06,14.28l-1.91-.44a14.36,14.36,0,0,0-1.77-3.85c-.07,1.13-.17,2.25-.28,3.38-2.83-.7-5.64-1.49-8.44-2.33a46.58,46.58,0,0,1-.7-7.73c0-2.21.08-4.65-1.13-6.35q-1.16,5.75-2.32,11.5l-2.94-5.22a10.84,10.84,0,0,1-1.43,2.94,70.76,70.76,0,0,1-2.06-19.48,5.51,5.51,0,0,0-.28-2.47c-.34-.74-1.22-1.21-1.81-.72a2.32,2.32,0,0,0-.58,1.35c-.62,3.45-.58,7.51-2.89,9.76a71.71,71.71,0,0,0-2.09-7.57c-2.17.41-.33,6-2.51,6.33a2.8,2.8,0,0,1-1.22-.29c-1.88-.61-4.05.95-4.43,3.18A36.92,36.92,0,0,0,137,356c-1,1-1.37,2.63-1.93,4.05s-1.61,2.84-2.94,2.73c-1.18-.09-2-1.43-2.29-2.79a16.05,16.05,0,0,1,.11-4.15,24,24,0,0,0-1.22-9.68q-1.32,6.12-2.65,12.23a2.46,2.46,0,0,1-.84,1.52l-1-.49a3.24,3.24,0,0,1-.19-.52q-.7-2.39-1.39-4.77a4.89,4.89,0,0,0-3.28,2.8q-2.15-1.11-4.28-2.25c-.4-1.45-.1-3.37-.22-5a14.5,14.5,0,0,0-1.82-5.32,28.44,28.44,0,0,1-1.43,8.47c-11.66-6.3-23.87-12.92-37.13-12.57C46.46,341,27.3,371.93,0,376.38V498.11l310-41.58C313.11,447.71,307.11,438,299.32,432.63Z"/><path class="cls-13" d="M713.81,362.43c-7.79-4.6-17.22-6.77-25.57-10.61-14.6-6.71-25.69-18.39-39.8-25.36-.14-1-.27-2-.41-3a5.36,5.36,0,0,0-1.09,2.31,56.55,56.55,0,0,0-7.75-2.93,4.2,4.2,0,0,0-.31-1c-.61-1.4-2.43-2.41-3.71-1.58q-.85-7-1.7-14.08a46.81,46.81,0,0,0-2.73,10.6l-1.16-3a14.27,14.27,0,0,0-.56,5.51c.05.51.11,1,.13,1.54-1.51-.19-3-.33-4.56-.46-.27-1.71-.54-3.42-.82-5.14a2.14,2.14,0,0,0-.58-1.39c-.88-.72-2.11.27-2.8,1.17a44.16,44.16,0,0,0-1.47-10.41q-2,6.86-3.95,13.71a44,44,0,0,1-3-8.83l-1.35.55a39.72,39.72,0,0,0-1.84-10.65,45.84,45.84,0,0,0-2.46,5.56l-.25-19.38c-1.52.66-1.92,2.59-2.12,4.24q-.88,7.32-1.76,14.63l-.78-8.47-1.21,11.52c-.12,1.19-.82,2.79-2,2.42-.21-2.81-.41-5.61-.62-8.41a32.72,32.72,0,0,0-.85,10.53,13.74,13.74,0,0,1-.07,4.83,5.24,5.24,0,0,1-.41.95c-.93-.15-1.85-.29-2.77-.45a45.62,45.62,0,0,0-.61-12.51q-.54,6.09-1.06,12.18l-1.91-.37a11.76,11.76,0,0,0-1.77-3.29c-.07,1-.17,1.93-.28,2.89-2.83-.6-5.65-1.27-8.44-2a34,34,0,0,1-.7-6.6c0-1.88.07-4-1.13-5.41l-2.33,9.81-2.94-4.46a8.34,8.34,0,0,1-1.43,2.51,51.89,51.89,0,0,1-2.05-16.62,4.16,4.16,0,0,0-.28-2.11,1.34,1.34,0,0,0-1.81-.61,1.8,1.8,0,0,0-.58,1.15c-.62,2.94-.58,6.41-2.89,8.33a56,56,0,0,0-2.1-6.46c-2.16.35-.33,5.14-2.5,5.4a3.32,3.32,0,0,1-1.23-.24,3.7,3.7,0,0,0-4.43,2.71A27,27,0,0,0,551.5,297c-1,.87-1.38,2.25-1.94,3.46s-1.6,2.42-2.93,2.33a2.83,2.83,0,0,1-2.3-2.39,12.4,12.4,0,0,1,.11-3.54,17.38,17.38,0,0,0-1.22-8.25q-1.32,5.21-2.65,10.43a2,2,0,0,1-.83,1.3l-1-.42a3.57,3.57,0,0,1-.19-.45l-1.39-4.06a4.75,4.75,0,0,0-3.27,2.39l-4.28-1.92c-.41-1.24-.1-2.88-.22-4.28a11.23,11.23,0,0,0-1.82-4.54,21.06,21.06,0,0,1-1.44,7.23C514.5,289,502.29,283.3,489,283.6c-29.29.67-48.86,29.34-78.07,31.19-6.46.41-13-.56-19.42,0-.85.07-1.68.16-2.51.28l-.24-2.24a17.27,17.27,0,0,0-.38,2.34c-.65.1-1.29.21-1.93.33a12.8,12.8,0,0,0-.56-4.29c-.12,1.36-.25,2.72-.37,4.08-.7.18-1.12-.6-1.19-1.17-.25-1.87-.49-3.73-.74-5.59-.15,1.37-.31,2.74-.47,4.1-.36-2.36-.71-4.73-1.07-7.09a2.29,2.29,0,0,0-1.29-2.06l-.15,9.4a22.45,22.45,0,0,0-1.5-2.7,16.09,16.09,0,0,0-1.12,5.17l-.82-.27a18.83,18.83,0,0,1-1.62,3.93l-.28.12q-1.16-3.21-2.32-6.41a17.14,17.14,0,0,0-.89,5.05c-.42-.44-1.17-.92-1.7-.57a1,1,0,0,0-.36.67c-.28,1.39-.55,2.78-.83,4.17l-.58-.55c-.17.53-1.27.46-1.63,0a2.23,2.23,0,0,1-.15-1.63,5.57,5.57,0,0,0-.34-2.67l-.71,1.44a18.49,18.49,0,0,0-1.66-5.14c-.34,2.28-.68,4.55-1,6.83a1.86,1.86,0,0,0-2.26.76,3.92,3.92,0,0,0-.2,2.2,11.61,11.61,0,0,1-.58,4.48l-.64.42a6.89,6.89,0,0,0-1.31-1.72l-.93,1c-1.73-1.42-.31-4.09-1.9-5.61l-.84,4.95a3.65,3.65,0,0,1-2.09-1.59c-.19.78-1.24,5.51-2.26,9.24l-8.66,5.85a65.51,65.51,0,0,1-1.3-8.18c-.83,1.42,0,7.28-2.69,9.08-.36.23-.36,1-.19,1.93l-3.06,2.07c-1-3.79-2.06-7.14-2.86-7.28-.47,1.36-1.07,8.89-1.53,10.25h0l-1.7,1.15c-.87-4.35-1.81-9.29-2.35-11.4-.83,2-.58,8.93-.31,13.19l-5.71,3.87c-.65-2.27-1.49-5.21-2.16-5.78-.66,1.48-.89,5.65-1.27,7.23-.39-1.9-1.83-1-3.7-.46a3.32,3.32,0,0,1-1.23.24c-2.17-.26-.34-5.05-2.5-5.4a53.47,53.47,0,0,0-2.09,6.46c-2.32-1.92-2.28-5.39-2.9-8.33a1.8,1.8,0,0,0-.58-1.15,1.32,1.32,0,0,0-1.8.61,4.06,4.06,0,0,0-.29,2.11,51.61,51.61,0,0,1-2,16.62,8.34,8.34,0,0,1-1.43-2.51L294.79,369l-2.32-9.81c-1.21,1.44-1.13,3.53-1.14,5.41a33.81,33.81,0,0,1-1.53,9.94c-16.6,10.08-34.29,18.68-54.18,22.27l65.2,75,423.66-89C727.59,375.29,721.59,367,713.81,362.43Z"/><path class="cls-14" d="M243.55,484.27c21.24-12.27,33.11,17,54.35,4.68l85.71-49.53c7.94-4.58,16-9.23,25-11.15,7.2-1.54,14.69-1.26,21.86-2.93,15.12-3.52,26.81-15.14,40.13-23.11a90.45,90.45,0,0,1,53-12.47c10.45.81,22.94,2.69,29.63-5.37,2.33-2.8,3.47-6.4,5.55-9.38,13.33-19.06,49.19.29,64.71-17,6.93-7.72,9.12-22,19.47-22.59,3.94-.21,7.92,2,11.72.89,5.45-1.55,6.9-8.39,10-13.16,6.93-10.77,22.24-10.75,34.44-14.64,13.55-4.32,24.43-14.42,37.24-20.58s13.89-5.62,13.88-2.07c-.82,2.64-.2,14.06-.17,18.61l-.71,195.43"/><path class="cls-15" d="M0,500H694.59c-14.81-13.79-37.09-16.54-57.6-16.06s-41.46,3.42-61.28-1.73c-12.77-3.33-24.37-9.85-36.49-15-25.5-10.81-53.25-15.43-80.68-20l-51.74-8.54c-6.57-1.09-13.27-2.21-19.18-5.22-6.92-3.53-12.22-9.36-17.89-14.58-17.84-16.42-44.38-27.75-67-18.36C289.72,406,277.35,418,263.8,414c-3-.89-6.1-2.59-9.1-1.66s-4.54,3.87-7.33,4.95c-5.39,2.08-10.5-3.83-16.24-4.63-10.22-1.42-15.56,12.74-25.53,15.33-6.65,1.72-13.76-2.19-20.47-.71-6.51,1.44-10.87,7.51-17.06,9.93-12.9,5-25.59-7.1-33.91-17.92l-31.69-41.16c-5.8-7.53-12-15.41-21-19s-21.37-.76-24.58,8.12a66.73,66.73,0,0,0-14.11-20.69c-1.91-1.9-4.17-3.8-6.9-3.95s-5.65,2.45-4.69,4.94C22.07,349.67,17,334.47,7.67,334.77c-2.62.08-5,1.44-7.67,1.58Z"/><path class="cls-16" d="M747.84,500l2.16-4V350a34.69,34.69,0,0,1-7.69,2.89c-4.94,1.13-10.33.68-14.81,3.05s-7.17,7-11.44,9.65c-4.51,2.77-10.06,2.9-15.53,3.11-.08-1-.16-1.91-.25-2.87-.18,1-.32,1.93-.44,2.9-1.13,0-2.26.1-3.37.18a32.55,32.55,0,0,0-.9-6.43l-.48,6.56c-.65.07-1.29.16-1.92.26a3.53,3.53,0,0,1-.17-.82q-.62-5.76-1.21-11.52-.39,4.23-.77,8.47l-1.77-14.64c-.2-1.64-.6-3.58-2.12-4.23l-.25,19.38a45.3,45.3,0,0,0-2.46-5.57A39.72,39.72,0,0,0,682.58,371l-1.35-.55a43.75,43.75,0,0,1-3,8.83q-2-6.86-4-13.7a44,44,0,0,0-1.47,10.4c-.69-.9-1.92-1.88-2.8-1.16a2.12,2.12,0,0,0-.58,1.39l-.84,5.25c-1.5,0-3-.06-4.51-.08,0-.37.07-.75.1-1.11a14.25,14.25,0,0,0-.56-5.51l-1.16,3a46.76,46.76,0,0,0-2.73-10.61q-.86,7.05-1.7,14.09c-1.2-.78-2.85.05-3.57,1.31a35.55,35.55,0,0,0-8.41,3.48,5.29,5.29,0,0,0-.88-1.59c-.1.76-.21,1.53-.31,2.29a34.37,34.37,0,0,0-9.79,9.13c-1.9,2.65-3.63,5.73-6.56,7.09l-2-4.83a7.48,7.48,0,0,0,.48,5.36,13.44,13.44,0,0,1-3,.26,1.35,1.35,0,0,1-.35-.24c-.55-.53-.43-1.22-.42-1.87a5.64,5.64,0,0,0-1.6-4V401a1.72,1.72,0,0,1-2.1-.58q-1-2.15-2-4.28l-.15,3.45-2.79-5.39a2.3,2.3,0,0,0-2.4-1.27l1.17,7.61a18.63,18.63,0,0,0-2.83-1.72,8,8,0,0,0-1,4.49l-1.36,0a11.92,11.92,0,0,1-1.26,2.53c-.61.23-1.22.47-1.81.73l-4.11-3.89a8.21,8.21,0,0,0-.69,4.33,4.12,4.12,0,0,0-2.83.05.83.83,0,0,0-.48.65l-.72,3.6-1-.27c-.19.48-2,.75-2.63.48s-.51-.8-.49-1.27a2.53,2.53,0,0,0-.95-2l-.93,1.37a11.39,11.39,0,0,0-3.46-3.64c-.21,1.93-.43,3.87-.64,5.8a5,5,0,0,0-3.54,1.3c-.5.66-.19,1.25,0,1.83a5.23,5.23,0,0,1-.36,4l6.47-1.9c-.26.12-.51.26-.78.38a25.88,25.88,0,0,1-5.76,1.66l.07-.14-.91.27h0l-.14,0,.12,0a9.26,9.26,0,0,0-2.34-1l-1.36,1.1c-3-.62-1.11-3.19-3.9-3.94l-.63,4.24a7.3,7.3,0,0,1-3.62-.65,5.06,5.06,0,0,1-.41,1c-6.17.24-12.1.9-16.72,4.77-2.81,2.36-4.78,5.7-7.9,7.62a22.07,22.07,0,0,1-6.89,2.36L501,442.83c-8.82,2-17.78,4-25.69,8.36-12.92,7.17-23.3,20.67-38.05,21.59l46,27.22Z"/></g></svg>